<svg width="16" height="16" viewBox="0 0 16 16" fill="none" xmlns="http://www.w3.org/2000/svg">
<g clip-path="url(#clip0_2126_4438)">
<path opacity="0.5" d="M8.08008 0.382812C8.37609 0.383035 8.62988 0.637548 8.62988 0.933594V3.54688C8.62969 3.84278 8.37597 4.09646 8.08008 4.09668C7.78401 4.09668 7.52949 3.84291 7.5293 3.54688V0.933594C7.5293 0.637418 7.7839 0.382812 8.08008 0.382812Z" fill="white" stroke="white" stroke-width="0.3"/>
<path opacity="0.6" d="M2.66699 2.58691C2.88554 2.36837 3.22087 2.36843 3.43945 2.58691L5.2793 4.42676C5.49788 4.64534 5.49788 4.98064 5.2793 5.19922C5.19973 5.27879 5.0553 5.34961 4.90625 5.34961C4.77655 5.34954 4.62477 5.31715 4.50684 5.19922L2.66699 3.35938C2.44851 3.14079 2.44845 2.80546 2.66699 2.58691Z" fill="white" stroke="white" stroke-width="0.3"/>
<path opacity="0.7" d="M3.54688 7.36963C3.84291 7.36982 4.09668 7.62435 4.09668 7.92041C4.09646 8.21631 3.84278 8.47002 3.54688 8.47021H0.933594C0.637548 8.47021 0.383035 8.21642 0.382812 7.92041C0.382812 7.62423 0.637418 7.36963 0.933594 7.36963H3.54688Z" fill="white" stroke="white" stroke-width="0.3"/>
<path opacity="0.8" d="M4.40039 10.7205C4.61891 10.5019 4.95427 10.5021 5.17285 10.7205C5.39143 10.939 5.39143 11.2743 5.17285 11.4929L3.33301 13.3328C3.21773 13.448 3.06835 13.4832 2.95996 13.4832C2.83023 13.4831 2.67852 13.4507 2.56055 13.3328C2.34214 13.1142 2.34203 12.7788 2.56055 12.5603L4.40039 10.7205Z" fill="white" stroke="white" stroke-width="0.3"/>
<path opacity="0.9" d="M7.91992 11.9028C8.21593 11.9031 8.46973 12.1576 8.46973 12.4536V15.0669C8.46953 15.3628 8.21582 15.6165 7.91992 15.6167C7.62386 15.6167 7.36933 15.3629 7.36914 15.0669V12.4536C7.36914 12.1574 7.62375 11.9028 7.91992 11.9028Z" fill="white" stroke="white" stroke-width="0.3"/>
<path d="M10.6934 10.8269C10.9119 10.6084 11.2472 10.6084 11.4658 10.8269L13.3057 12.6667C13.5242 12.8853 13.5242 13.2206 13.3057 13.4392C13.206 13.5642 13.0445 13.5896 12.9326 13.5896C12.8029 13.5895 12.6511 13.5571 12.5332 13.4392L10.6934 11.5994C10.4749 11.3808 10.4748 11.0455 10.6934 10.8269Z" fill="white" stroke="white" stroke-width="0.3"/>
<path opacity="0.3" d="M15.0674 7.52954C15.3634 7.52973 15.6172 7.78426 15.6172 8.08032C15.617 8.37622 15.3633 8.62993 15.0674 8.63013H12.4541C12.1581 8.63013 11.9035 8.37633 11.9033 8.08032C11.9033 7.78415 12.1579 7.52954 12.4541 7.52954H15.0674Z" fill="white" stroke="white" stroke-width="0.3"/>
<path opacity="0.4" d="M12.6406 2.6936C12.8591 2.47508 13.1945 2.4752 13.4131 2.6936C13.6317 2.91218 13.6317 3.24749 13.4131 3.46606L11.5732 5.30591C11.4736 5.43093 11.3121 5.4563 11.2002 5.4563C11.0705 5.45626 10.9188 5.42388 10.8008 5.30591C10.5824 5.08733 10.5823 4.75197 10.8008 4.53345L12.6406 2.6936Z" fill="white" stroke="white" stroke-width="0.3"/>
</g>
<defs>
<clipPath id="clip0_2126_4438">
<rect width="16" height="16" fill="white"/>
</clipPath>
</defs>
</svg>
