<svg width="22" height="22" viewBox="0 0 22 22" fill="none" xmlns="http://www.w3.org/2000/svg">
<path d="M11.0003 14.6667C8.47949 14.6667 6.41699 12.4667 6.41699 9.71667V4.95C6.41699 2.2 8.47949 0 11.0003 0C13.5212 0 15.5837 2.2 15.5837 4.95V9.7625C15.5837 12.4667 13.5212 14.6667 11.0003 14.6667ZM11.0003 1.83333C9.48783 1.83333 8.25033 3.20833 8.25033 4.95V9.7625C8.25033 11.4583 9.48783 12.8792 11.0003 12.8792C12.5128 12.8792 13.7503 11.5042 13.7503 9.7625V4.95C13.7503 3.20833 12.5128 1.83333 11.0003 1.83333Z" fill="#020202"/>
<path d="M17.8747 9.25833C17.3705 9.25833 16.958 9.67083 16.958 10.175V11.0917C16.958 14.1167 14.483 16.5917 11.458 16.5917H10.5413C7.51634 16.5917 5.04134 14.1167 5.04134 11.0917V10.175C5.04134 9.67083 4.62884 9.25833 4.12467 9.25833C3.62051 9.25833 3.20801 9.67083 3.20801 10.175V11.0917C3.20801 14.9875 6.23301 18.15 10.083 18.3792V20.1667H7.74551C7.28717 20.1667 6.87467 20.5792 6.87467 21.0375V21.1292C6.87467 21.5875 7.28717 22 7.74551 22H14.2538C14.7122 22 15.1247 21.5875 15.1247 21.1292V21.0375C15.1247 20.5792 14.7122 20.1667 14.2538 20.1667H11.9163V18.3792C15.7663 18.15 18.7913 14.9417 18.7913 11.0917V10.175C18.7913 9.67083 18.3788 9.25833 17.8747 9.25833Z" fill="#020202"/>
</svg>
