<svg width="20" height="20" viewBox="0 0 20 20" fill="none" xmlns="http://www.w3.org/2000/svg">
<path d="M19.1837 6.10478C18.6848 4.92027 17.9592 3.82688 17.0522 2.91572L16.9161 2.77904C15.0567 1.00228 12.5624 0 9.97732 0C7.30159 0 4.80726 1.04784 2.90249 2.91572V2.96128C1.04308 4.87472 0 7.38041 0 10.0228C0 11.1162 0.181406 12.1185 0.498866 13.1207C0.816327 14.0319 1.22449 14.8975 1.76871 15.7175L1.85941 15.8087V19.6355C1.85941 19.8178 2.04082 20 2.22222 20H9.97732C11.3379 20 12.6077 19.7267 13.8776 19.2255C15.0567 18.7244 16.1451 17.9954 17.0522 17.0843L17.1882 16.9476C19.0023 15.0797 20 12.6196 20 9.97722C19.9546 8.65604 19.6825 7.38041 19.1837 6.10478ZM13.5601 11.6173L9.97732 15.0797C9.93197 15.1253 9.84127 15.1708 9.75057 15.1708C9.65986 15.1708 9.61451 15.1253 9.52381 15.0797L5.98639 11.6629L5.94104 11.6173C5.07937 10.7517 4.85261 9.65831 5.26077 8.61048C5.71429 7.47153 6.84807 6.69704 8.02721 6.69704C8.57143 6.69704 9.11565 6.87927 9.61451 7.19818L9.70522 7.24374L9.79592 7.19818C10.2948 6.87927 10.839 6.69704 11.3832 6.69704C12.5624 6.69704 13.6961 7.47153 14.1497 8.61048C14.6485 9.65831 14.4218 10.7517 13.5601 11.6173Z" fill="#CFD3D8"/>
</svg>
