<svg width="24" height="24" viewBox="0 0 24 24" fill="none" xmlns="http://www.w3.org/2000/svg">
<path d="M23.9868 14.366C23.9868 11.3784 21.749 8.97114 18.9539 8.6397C19.1127 9.2201 19.1936 9.88454 19.1936 10.5474C19.2465 10.9904 19.1931 11.5713 19.0333 12.2902C19.7523 12.5392 20.2316 13.2861 20.2316 14.033C20.2316 15.1129 19.4332 15.9423 18.3937 15.9423C18.0747 15.9423 17.835 15.8598 17.5953 15.7758L16.8763 16.7716C16.1574 17.6026 15.5178 18.2655 14.7988 18.9299C15.9711 20.2577 17.1694 21.2536 18.3937 21.9175C19.8317 21.1426 21.1633 20.0363 22.3886 18.5985C23.5599 17.1596 24.0927 15.7488 23.9868 14.366ZM14.4797 16.8557C16.1843 14.7529 16.9567 12.6502 16.797 10.5474C16.797 5.81701 13.0417 2 8.40875 2C3.77427 2 0.0205499 5.81701 0.0205499 10.6314C-0.139225 12.7332 0.632689 14.8354 2.33629 16.9381C4.20067 19.1509 6.22482 20.8381 8.40875 22C10.5917 20.8381 12.6153 19.1234 14.4797 16.8557ZM8.40875 13.1211C6.88989 13.1211 5.61218 11.8763 5.61218 10.2985C5.61218 8.72217 6.88989 7.47732 8.40875 7.47732C9.92612 7.47732 11.2038 8.6397 11.2038 10.216C11.1949 10.9833 10.8976 11.7167 10.3754 12.2594C9.85316 12.8022 9.14741 13.1115 8.40875 13.1211Z" fill="#CFD3D8"/>
<path d="M12 21L15 21" stroke="#CFD3D8" stroke-width="2" stroke-linecap="round"/>
</svg>
