<svg width="21" height="17" viewBox="0 0 21 17" fill="none" xmlns="http://www.w3.org/2000/svg">
<path d="M8.98363 0.423617C9.29831 0.192799 9.66902 0.0503708 10.0573 0.0111026C10.4456 -0.0281656 10.8373 0.0371563 11.1918 0.200294C11.5464 0.363431 11.8508 0.618444 12.0735 0.938885C12.2963 1.25933 12.4293 1.63353 12.4587 2.02268C12.7635 6.04688 12.7635 10.0884 12.4587 14.1126C12.4293 14.5017 12.2963 14.8759 12.0735 15.1963C11.8508 15.5168 11.5464 15.7718 11.1918 15.9349C10.8373 16.0981 10.4456 16.1634 10.0573 16.1241C9.66902 16.0849 9.29831 15.9424 8.98363 15.7116L4.52638 12.4426H2.37606C1.8773 12.4426 1.39351 12.2722 1.00489 11.9595C0.616264 11.6469 0.346148 11.2109 0.239313 10.7237L0.220063 10.6261C0.0739827 9.78111 0.000360845 8.92516 0 8.06762C0 7.21449 0.0735 6.36137 0.220063 5.50912C0.307553 5.00073 0.5719 4.53961 0.966407 4.20723C1.36091 3.87484 1.8602 3.69257 2.37606 3.69262H4.52594L8.98363 0.423617ZM10.5949 1.88662C10.5216 1.80936 10.4227 1.76148 10.3166 1.75198C10.2105 1.74248 10.1046 1.77199 10.0188 1.83499L5.33006 5.2733C5.17994 5.38336 4.99864 5.44267 4.8125 5.44262H2.37563C2.27252 5.44266 2.17275 5.47912 2.09391 5.54556C2.01506 5.61199 1.96222 5.70414 1.94469 5.80574C1.81548 6.55278 1.75034 7.30949 1.75 8.06762C1.75 8.82099 1.81475 9.5748 1.94469 10.3295C1.96223 10.4312 2.01514 10.5234 2.09407 10.5898C2.17301 10.6563 2.27289 10.6927 2.37606 10.6926H4.8125C4.99864 10.6926 5.17994 10.7519 5.33006 10.8619L10.0188 14.3007C10.0817 14.3468 10.1559 14.3752 10.2335 14.383C10.3112 14.3908 10.3895 14.3777 10.4604 14.345C10.5312 14.3123 10.5921 14.2613 10.6366 14.1972C10.6811 14.1331 10.7077 14.0583 10.7135 13.9804C11.0116 10.0442 11.0116 6.09104 10.7135 2.1548C10.7074 2.07326 10.6786 1.99506 10.6304 1.92905L10.5949 1.88662ZM18.9634 3.0543C19.7304 4.61406 20.1279 6.3295 20.125 8.06762C20.127 9.80564 19.7296 11.5209 18.9634 13.0809C18.861 13.2892 18.6801 13.4483 18.4604 13.5231C18.2407 13.598 18.0003 13.5825 17.792 13.4801C17.5838 13.3777 17.4247 13.1968 17.3498 12.9771C17.275 12.7574 17.2904 12.517 17.3928 12.3087C18.0417 10.9893 18.3778 9.53801 18.375 8.06762C18.3769 6.59732 18.0409 5.14625 17.3928 3.82649C17.2904 3.61821 17.275 3.37779 17.3498 3.15811C17.4247 2.93843 17.5838 2.75748 17.792 2.65509C18.0003 2.55269 18.2407 2.53722 18.4604 2.61209C18.6801 2.68696 18.861 2.84603 18.9634 3.0543ZM16.0269 5.0528C16.4229 6.00854 16.6262 7.0331 16.625 8.06762C16.625 9.11499 16.4203 10.1348 16.0269 11.0824C15.9348 11.2919 15.7642 11.4569 15.5519 11.5421C15.3395 11.6273 15.1022 11.6259 14.8909 11.5382C14.6795 11.4506 14.5109 11.2836 14.4211 11.0731C14.3314 10.8626 14.3277 10.6254 14.4108 10.4122C14.7185 9.66889 14.8763 8.87209 14.875 8.06762C14.875 7.25168 14.7158 6.45937 14.4108 5.72305C14.3277 5.50986 14.3314 5.2726 14.4211 5.06211C14.5109 4.85162 14.6795 4.68465 14.8909 4.59699C15.1022 4.50934 15.3395 4.50796 15.5519 4.59316C15.7642 4.67837 15.9348 4.84337 16.0269 5.0528Z" fill="black"/>
</svg>
