<svg width="259" height="259" viewBox="0 0 259 259" fill="none" xmlns="http://www.w3.org/2000/svg">
<g filter="url(#filter0_d_2691_6827)">
<path d="M129.5 33.7544C180.586 33.7544 222 75.1681 222 126.254C222 177.341 180.586 218.754 129.5 218.754C78.4137 218.754 37 177.341 37 126.254C37 75.1681 78.4137 33.7544 129.5 33.7544ZM129.5 86.7544C107.685 86.7544 90 104.439 90 126.254C90 148.07 107.685 165.754 129.5 165.754C151.315 165.754 169 148.07 169 126.254C169 104.439 151.315 86.7544 129.5 86.7544Z" fill="white"/>
</g>
<defs>
<filter id="filter0_d_2691_6827" x="3.8147e-06" y="1.23978e-05" width="259" height="259" filterUnits="userSpaceOnUse" color-interpolation-filters="sRGB">
<feFlood flood-opacity="0" result="BackgroundImageFix"/>
<feColorMatrix in="SourceAlpha" type="matrix" values="0 0 0 0 0 0 0 0 0 0 0 0 0 0 0 0 0 0 127 0" result="hardAlpha"/>
<feOffset dy="3.24561"/>
<feGaussianBlur stdDeviation="18.5"/>
<feComposite in2="hardAlpha" operator="out"/>
<feColorMatrix type="matrix" values="0 0 0 0 0.94902 0 0 0 0 0.94902 0 0 0 0 0.968627 0 0 0 1 0"/>
<feBlend mode="multiply" in2="BackgroundImageFix" result="effect1_dropShadow_2691_6827"/>
<feBlend mode="normal" in="SourceGraphic" in2="effect1_dropShadow_2691_6827" result="shape"/>
</filter>
</defs>
</svg>
