<svg width="27" height="24" viewBox="0 0 27 24" fill="none" xmlns="http://www.w3.org/2000/svg">
<path fill-rule="evenodd" clip-rule="evenodd" d="M14 1C15.9114 1.00002 17.773 1.5953 19.3154 2.69922C20.8577 3.8031 22.0012 5.35815 22.5791 7.13965C23.1569 8.92129 23.1391 10.837 22.5292 12.6084C21.9194 14.3798 20.7486 15.915 19.1865 16.9922L21.5302 22.2285C21.5678 22.3122 21.5828 22.404 21.5751 22.4951C21.5674 22.5863 21.5366 22.6744 21.4853 22.751C21.434 22.8275 21.3646 22.8911 21.2822 22.9346C21.1998 22.978 21.1072 23.0002 21.0136 23H6.9853C6.89182 23.0007 6.79921 22.9786 6.71675 22.9355C6.63417 22.8923 6.56304 22.8295 6.51167 22.7529C6.46037 22.6764 6.42949 22.5882 6.42183 22.4971C6.41421 22.4058 6.4307 22.3132 6.4687 22.2295L8.81148 16.9922H8.81343C7.25135 15.915 6.08054 14.3798 5.47065 12.6084C4.86078 10.837 4.84302 8.92129 5.42085 7.13965C5.99873 5.35817 7.1422 3.80309 8.68452 2.69922C10.2269 1.59534 12.0886 1 14 1ZM17.3007 9.33691C16.7139 9.33691 16.2309 9.78432 16.1748 10.3564C16.0504 10.8231 15.7745 11.2377 15.3857 11.5352C14.99 11.8377 14.5013 12.002 13.999 12.002C13.4967 12.0019 13.0089 11.8377 12.6132 11.5352C12.2176 11.2326 11.9365 10.8096 11.8154 10.333H11.8134C11.7257 9.79586 11.2611 9.38577 10.6992 9.38574C10.0746 9.38574 9.56831 9.89205 9.56831 10.5166C9.56833 10.6747 9.60053 10.8253 9.65913 10.9619C9.91619 11.8737 10.4671 12.6811 11.2314 13.2637C12.0223 13.8665 12.9962 14.1943 13.999 14.1943C15.0018 14.1943 15.9766 13.8666 16.7675 13.2637C17.5583 12.6608 18.1205 11.8171 18.3652 10.8662C18.3645 10.866 18.3622 10.8652 18.3584 10.8643C18.4046 10.7408 18.4316 10.6074 18.4316 10.4678C18.4314 9.84343 17.9251 9.33694 17.3007 9.33691Z" fill="#CFD3D8"/>
</svg>
