<svg width="24" height="24" viewBox="0 0 24 24" fill="none" xmlns="http://www.w3.org/2000/svg">
<path d="M20.0203 20.7188H3.97969C3.59297 20.7188 3.28125 21.0539 3.28125 21.4688V22.3125C3.28125 22.4156 3.35859 22.5 3.45469 22.5H20.543C20.6391 22.5 20.7164 22.4156 20.7164 22.3125V21.4688C20.7188 21.0539 20.407 20.7188 20.0203 20.7188Z" fill="white"/>
<path d="M3.5 21.5H20.5" stroke="#8FC31F" stroke-width="2" stroke-linecap="round"/>
<path d="M3 2C3 1.44772 3.44772 1 4 1H12C16.9706 1 21 5.02944 21 10C21 14.9706 16.9706 19 12 19C7.02944 19 3 14.9706 3 10V2Z" fill="#8FC31F"/>
<path d="M7 10C7 10.5304 7.21071 11.0391 7.58579 11.4142C7.96086 11.7893 8.46957 12 9 12C9.53043 12 10.0391 11.7893 10.4142 11.4142C10.7893 11.0391 11 10.5304 11 10C11 9.46957 10.7893 8.96086 10.4142 8.58579C10.0391 8.21071 9.53043 8 9 8C8.46957 8 7.96086 8.21071 7.58579 8.58579C7.21071 8.96086 7 9.46957 7 10Z" fill="white"/>
<path d="M13 10C13 10.5304 13.2107 11.0391 13.5858 11.4142C13.9609 11.7893 14.4696 12 15 12C15.5304 12 16.0391 11.7893 16.4142 11.4142C16.7893 11.0391 17 10.5304 17 10C17 9.46957 16.7893 8.96086 16.4142 8.58579C16.0391 8.21071 15.5304 8 15 8C14.4696 8 13.9609 8.21071 13.5858 8.58579C13.2107 8.96086 13 9.46957 13 10Z" fill="white"/>
</svg>
